<svg width="1920" height="1080" xmlns="http://www.w3.org/2000/svg">
  <defs>
    <linearGradient id="grad" x1="0%" y1="0%" x2="100%" y2="100%">
      <stop offset="0%" style="stop-color:#1e3c72;stop-opacity:1" />
      <stop offset="100%" style="stop-color:#2a5298;stop-opacity:1" />
    </linearGradient>
  </defs>
  <rect width="1920" height="1080" fill="url(#grad)"/>
  <text x="960" y="80" font-family="Arial" font-size="48" font-weight="bold" fill="white" text-anchor="middle">CI/CD Pipeline</text>
  
  <rect x="100" y="200" width="1720" height="600" rx="15" fill="rgba(0,0,0,0.3)"/>
  
  <g transform="translate(200, 300)">
    <circle cx="50" cy="50" r="40" fill="#3b82f6"/>
    <text x="50" y="58" font-size="24" fill="white" text-anchor="middle">Code</text>
    <text x="50" y="120" font-size="18" fill="white" text-anchor="middle">GitHub</text>
  </g>
  
  <line x1="290" y1="350" x2="410" y2="350" stroke="white" stroke-width="3" marker-end="url(#arrow)"/>
  
  <g transform="translate(450, 300)">
    <circle cx="50" cy="50" r="40" fill="#10b981"/>
    <text x="50" y="58" font-size="24" fill="white" text-anchor="middle">Build</text>
    <text x="50" y="120" font-size="18" fill="white" text-anchor="middle">Docker</text>
  </g>
  
  <line x1="540" y1="350" x2="660" y2="350" stroke="white" stroke-width="3"/>
  
  <g transform="translate(700, 300)">
    <circle cx="50" cy="50" r="40" fill="#f59e0b"/>
    <text x="50" y="58" font-size="24" fill="white" text-anchor="middle">Test</text>
    <text x="50" y="120" font-size="18" fill="white" text-anchor="middle">Jest/PyTest</text>
  </g>
  
  <line x1="790" y1="350" x2="910" y2="350" stroke="white" stroke-width="3"/>
  
  <g transform="translate(950, 300)">
    <circle cx="50" cy="50" r="40" fill="#8b5cf6"/>
    <text x="50" y="58" font-size="24" fill="white" text-anchor="middle">Scan</text>
    <text x="50" y="120" font-size="18" fill="white" text-anchor="middle">Security</text>
  </g>
  
  <line x1="1040" y1="350" x2="1160" y2="350" stroke="white" stroke-width="3"/>
  
  <g transform="translate(1200, 300)">
    <circle cx="50" cy="50" r="40" fill="#ef4444"/>
    <text x="50" y="58" font-size="24" fill="white" text-anchor="middle">Deploy</text>
    <text x="50" y="120" font-size="18" fill="white" text-anchor="middle">K8s/AWS</text>
  </g>
  
  <text x="960" y="550" font-size="28" fill="white" text-anchor="middle">Automated Pipeline: Push → Production in &lt; 10 minutes</text>
</svg>